<svg width="18" height="20" viewBox="0 0 18 20" fill="none" xmlns="http://www.w3.org/2000/svg">
<path d="M2.05203 19.741C1.99903 19.741 1.78803 19.784 1.75603 19.795C1.73503 19.804 1.65503 19.89 1.58903 19.959H17.664C17.636 19.884 17.614 19.802 17.601 19.741C17.58 19.639 17.506 19.508 17.402 19.508C17.296 19.508 17.318 19.464 17.199 19.365C17.083 19.266 16.84 18.924 16.722 18.782C16.607 18.637 16.533 18.692 16.406 18.637C16.279 18.583 16.205 18.668 16.161 18.692C16.117 18.716 15.941 18.881 15.886 18.893C15.833 18.903 15.717 18.993 15.698 19.036C15.677 19.081 15.518 19.158 15.444 19.147C15.37 19.134 15.084 19.21 15.084 19.21C15.084 19.21 14.762 19.241 14.53 19.262C14.577 19.2 14.729 18.992 14.741 18.887C14.757 18.758 14.799 18.575 14.799 18.575C14.799 18.575 14.954 17.983 14.982 17.843C15.01 17.701 15.081 17.435 15.081 17.435C15.081 17.435 15.18 17.392 15.209 17.236C15.236 17.082 15.166 16.882 15.166 16.882C15.166 16.882 15.334 16.403 15.42 16.289C15.506 16.176 15.66 16.01 15.716 15.826C15.772 15.639 15.829 15.485 15.744 15.358C15.66 15.231 15.631 15.106 15.631 15.106C15.631 15.106 15.76 15.173 15.817 15.145C15.874 15.118 16.114 14.92 16.114 14.92L16.409 15.076L16.452 14.935C16.452 14.935 16.918 14.609 16.594 14.116C16.267 13.622 15.889 13.79 15.734 13.902C15.578 14.017 15.38 14.045 15.396 14.087C15.408 14.132 15.437 14.186 15.437 14.186C15.437 14.186 15.353 14.243 15.293 14.172C15.239 14.102 15.096 14.045 15.041 13.846C14.985 13.651 14.873 13.354 14.702 13.2C14.534 13.043 14.082 12.748 13.856 12.591C13.629 12.436 13.544 12.382 13.389 12.352C13.233 12.326 13.108 12.253 13.008 12.199C12.908 12.139 12.754 12.043 12.754 12.043L12.768 11.789C12.768 11.789 13.049 11.69 13.065 11.634C13.08 11.578 12.924 11.549 12.924 11.549C12.924 11.549 12.824 11.153 12.444 11.07C12.063 10.984 11.795 11.154 11.795 11.154C11.795 11.154 11.823 10.716 11.639 10.393C11.454 10.066 11.301 9.743 11.301 9.743C11.301 9.743 11.414 9.716 11.4 9.645C11.386 9.572 11.287 9.475 11.216 9.392C11.146 9.307 11.2 9.25 11.09 9.232C10.978 9.222 10.922 9.194 10.922 9.194L10.831 9.05L6.92903 0.292C6.92903 0.292 7.01403 0.0690001 6.83003 0.0130001C6.64703 -0.0449999 6.63303 0.109 6.66103 0.194C6.67203 0.232 6.70703 0.261 6.74403 0.283C6.73703 0.399 6.73003 0.633 6.76403 0.978C6.46703 1.262 5.27703 2.393 4.88303 2.662C4.43103 2.973 3.72503 3.286 3.47103 3.652C3.21603 4.018 3.01903 4.387 2.53903 4.499C2.06003 4.613 1.75103 4.613 1.15803 4.865C0.563032 5.123 0.311032 5.514 0.311032 5.514C0.311032 5.514 0.226032 6.222 0.451032 6.559C0.679032 6.897 0.762032 7.574 0.762032 7.574C0.762032 7.574 1.60803 6.629 2.42803 6.616C4.60303 6.578 4.28603 5.942 5.61403 5.347C6.79603 4.819 7.88203 5.043 8.06503 5.012C9.02003 7.004 9.74103 7.884 10.253 8.745C10.142 8.808 10.03 8.888 9.98303 8.976C9.95003 8.976 9.93803 9.025 9.92803 9.082C9.82303 9.292 9.70503 9.553 9.64803 9.725C9.62203 9.804 9.48003 10.047 9.30403 10.324C9.15703 10.489 9.00103 10.668 8.95303 10.741C8.89703 10.824 8.83603 10.964 8.77603 11.074C8.67503 11.201 8.58103 11.303 8.51503 11.348L8.41603 11.12C8.41603 11.12 8.53103 10.868 8.48903 10.754C8.44603 10.641 8.31703 10.711 8.31703 10.711C8.31703 10.711 7.99403 10.416 7.64003 10.586C7.28903 10.754 7.21703 11.05 7.31703 11.332C7.41603 11.614 7.61203 11.728 7.61203 11.728C7.61203 11.728 7.62603 11.951 7.50203 11.964L7.49903 11.965C7.42003 11.976 7.36403 11.984 7.31203 11.999C7.20303 11.994 7.10903 11.974 7.02403 11.959C6.93303 11.99 6.83403 12.026 6.72703 12.063C6.66203 12.19 6.61603 12.542 6.57203 12.904C6.50503 13.216 6.43903 13.514 6.43903 13.514C6.43903 13.514 6.21403 13.727 6.11503 13.743C6.01503 13.757 5.84703 13.868 5.73403 14.011C5.62103 14.15 5.24003 14.435 5.22803 14.547C5.21203 14.66 5.31103 14.743 5.25403 14.8C5.19803 14.857 5.15403 14.913 5.17003 15C5.18403 15.081 5.36703 15.167 5.25403 15.269C5.14103 15.367 4.84503 15.873 4.77403 16.043C4.70403 16.211 4.39303 16.638 4.23703 16.692C4.08403 16.748 3.73103 16.975 3.63003 17.073C3.53203 17.174 3.10903 17.692 2.91203 17.805C2.71503 17.916 2.41703 18.27 2.41703 18.27C2.41703 18.27 2.05003 18.469 2.00803 18.539C1.96503 18.61 1.96503 18.61 1.97903 18.697C1.99303 18.781 2.29003 19.09 2.34703 19.248C2.37803 19.334 2.40903 19.427 2.45803 19.499C2.39803 19.515 2.35003 19.532 2.33503 19.539C2.29503 19.563 2.10503 19.741 2.05203 19.741ZM14.441 18.39C14.441 18.39 14.322 18.422 14.322 18.454C14.322 18.487 14.226 18.436 14.226 18.436L14.06 17.906C14.06 17.906 14.418 17.711 14.453 17.842L14.441 18.39ZM14.441 15.958C14.562 15.946 14.671 15.979 14.671 15.979L14.637 16.417C14.637 16.417 14.376 16.209 14.265 16.123C14.158 16.033 13.982 15.914 13.982 15.914C13.982 15.914 14.321 15.968 14.441 15.958ZM13.539 18.108C13.739 18.036 13.828 17.985 13.828 17.985L14.287 19.27C14.167 19.24 13.765 19.026 13.696 18.934C13.621 18.835 13.507 18.824 13.421 18.782C13.375 18.757 13.262 18.746 13.17 18.743C13.159 18.688 13.131 18.63 13.077 18.588C12.934 18.476 12.864 18.319 12.948 18.291C13.032 18.265 13.342 18.181 13.539 18.108ZM12.298 16.967C12.298 16.967 12.383 16.838 12.398 16.74C12.411 16.641 12.383 16.553 12.383 16.553C12.383 16.553 12.976 16.782 13.2 16.852C13.428 16.92 13.345 17.016 13.345 17.016C13.345 17.016 13.019 17.416 12.863 17.473C12.709 17.531 12.497 17.629 12.497 17.629C12.497 17.629 12.326 17.657 12.215 17.712C12.104 17.77 11.959 17.868 11.959 17.868C11.959 17.868 12.055 18.031 12.164 18.21C12.15 18.214 12.137 18.216 12.129 18.217C12.033 18.251 11.99 18.395 11.99 18.395C11.99 18.395 11.675 18.514 11.633 18.548C11.591 18.583 11.432 18.682 11.421 18.727C11.411 18.77 11.113 18.836 11.113 18.836C11.113 18.836 10.799 18.841 10.594 18.854C10.666 18.716 10.769 18.548 10.902 18.419C11.183 18.136 12.298 16.967 12.298 16.967ZM7.85203 3.808C6.96803 1.757 7.03203 1.085 7.03203 1.085L10.386 8.674C10.382 8.675 10.379 8.679 10.375 8.68C8.19103 5.309 8.37403 5.017 7.85203 3.808ZM9.77603 16.296C9.77603 16.296 10.864 16.853 10.875 16.918C10.887 16.983 10.539 17.278 10.45 17.288C10.364 17.3 10.192 17.634 10.094 17.69C9.99603 17.746 9.71103 17.331 9.71103 17.331C9.71103 17.331 9.79903 17.224 9.74403 17.071C9.69003 16.917 9.66903 16.418 9.66903 16.418C9.66903 16.418 9.61403 16.11 9.77603 16.296ZM2.84303 18.63L3.23703 18.814C3.23703 18.814 4.31003 17.63 4.70603 17.361C5.10103 17.093 6.28603 16.008 6.28603 16.008L6.58303 16.064C6.58303 16.064 6.14503 17.021 5.97503 17.179C5.80803 17.33 5.46903 17.515 5.28503 17.685C5.10203 17.855 4.80503 18.277 4.69303 18.419C4.58003 18.56 4.36803 18.685 4.36803 18.685L4.24003 18.801L3.74803 19.066C3.74803 19.066 3.87103 19.254 3.99503 19.426C3.75003 19.445 3.50503 19.503 3.32403 19.553C3.21903 19.525 3.06903 19.491 2.95603 19.47C2.89903 19.449 2.77903 19.376 2.74703 19.154C2.70103 18.856 2.84303 18.63 2.84303 18.63Z" fill="white"/>
</svg>
